<?xml version="1.0" encoding="utf-8"?>
<!-- Generator: Adobe Illustrator 22.0.0, SVG Export Plug-In . SVG Version: 6.00 Build 0)  -->
<svg version="1.1" id="Слой_1" xmlns="http://www.w3.org/2000/svg" xmlns:xlink="http://www.w3.org/1999/xlink" x="0px" y="0px"
	 viewBox="0 0 424 108" style="enable-background:new 0 0 424 108;" xml:space="preserve">
<g fill="white">
	<path d="M55.5,38.6H36l-3.7,9h-10L41,5.6h9.6l18.8,42H59.2L55.5,38.6z M52.4,31.2l-6.7-16.1l-6.7,16.1H52.4z"/>
	<path d="M113.5,5.6v42h-9.7V30.4H84.7v17.2H75v-42h9.7v16.6h19.1V5.6H113.5z"/>
	<path d="M152.4,38.6h-19.5l-3.7,9h-10l18.7-42h9.6l18.8,42h-10.2L152.4,38.6z M149.4,31.2l-6.7-16.1L136,31.2H149.4z"/>
	<path d="M179.6,45.5c-3.5-1.9-6.2-4.4-8.2-7.7c-2-3.3-3-7-3-11.2c0-4.2,1-7.9,3-11.2c2-3.3,4.7-5.9,8.2-7.7
		c3.5-1.9,7.3-2.8,11.7-2.8c3.6,0,6.9,0.6,9.9,1.9c2.9,1.3,5.4,3.1,7.4,5.5l-6.2,5.8c-2.8-3.3-6.4-4.9-10.6-4.9
		c-2.6,0-4.9,0.6-7,1.7s-3.6,2.7-4.8,4.8c-1.1,2-1.7,4.4-1.7,7c0,2.6,0.6,4.9,1.7,7c1.1,2,2.7,3.6,4.8,4.8s4.4,1.7,7,1.7
		c4.2,0,7.7-1.7,10.6-5l6.2,5.8c-2,2.4-4.5,4.3-7.4,5.6c-3,1.3-6.3,1.9-9.9,1.9C186.9,48.3,183,47.4,179.6,45.5z"/>
	<path d="M246.6,13.5h-13.4v34.1h-9.6V13.5h-13.4V5.6h36.4V13.5z"/>
	<path d="M279,38.6h-19.5l-3.7,9h-10l18.7-42h9.6l18.8,42h-10.2L279,38.6z M276,31.2l-6.7-16.1l-6.7,16.1H276z"/>
	<path d="M306.2,45.5c-3.5-1.9-6.2-4.4-8.2-7.7c-2-3.3-3-7-3-11.2c0-4.2,1-7.9,3-11.2c2-3.3,4.7-5.9,8.2-7.7
		c3.5-1.9,7.3-2.8,11.7-2.8c3.6,0,6.9,0.6,9.9,1.9c2.9,1.3,5.4,3.1,7.4,5.5l-6.2,5.8c-2.8-3.3-6.4-4.9-10.6-4.9
		c-2.6,0-4.9,0.6-7,1.7s-3.6,2.7-4.8,4.8c-1.1,2-1.7,4.4-1.7,7c0,2.6,0.6,4.9,1.7,7c1.1,2,2.7,3.6,4.8,4.8s4.4,1.7,7,1.7
		c4.2,0,7.7-1.7,10.6-5l6.2,5.8c-2,2.4-4.5,4.3-7.4,5.6c-3,1.3-6.3,1.9-9.9,1.9C313.5,48.3,309.6,47.4,306.2,45.5z"/>
	<path d="M341.5,5.6h9.7v42h-9.7V5.6z"/>
	<path d="M395.1,5.6v42h-9.6V36.4h-8.9l-7.4,11.2h-10.3l8.8-12.7c-2.8-1.2-5-2.9-6.5-5.3c-1.5-2.3-2.3-5.1-2.3-8.4
		c0-3.2,0.7-6,2.2-8.4c1.5-2.3,3.6-4.1,6.3-5.4c2.7-1.3,5.9-1.9,9.6-1.9H395.1z M370.9,15.4c-1.5,1.3-2.2,3.2-2.2,5.7
		c0,2.4,0.7,4.3,2.1,5.6c1.4,1.3,3.5,2,6.2,2h8.5V13.5h-8.3C374.5,13.5,372.4,14.2,370.9,15.4z"/>
	<path d="M45.5,53.6v42h-9.7V61.5h-19v34.1H7.2v-42H45.5z"/>
	<path d="M83.8,55.5c2.7,1.2,4.8,3,6.3,5.3c1.5,2.3,2.2,5,2.2,8.1c0,3.1-0.7,5.8-2.2,8.1c-1.5,2.3-3.6,4.1-6.3,5.3
		c-2.7,1.2-6,1.8-9.7,1.8h-8.5v11.6h-9.7v-42h18.2C77.8,53.6,81.1,54.2,83.8,55.5z M80.2,74.2c1.5-1.3,2.3-3,2.3-5.4
		c0-2.4-0.8-4.2-2.3-5.4c-1.5-1.3-3.7-1.9-6.7-1.9h-7.9v14.6h7.9C76.5,76.1,78.7,75.5,80.2,74.2z"/>
	<path d="M98.8,53.6h9.7V81l20-27.4h9.1v42H128V68.3l-20,27.3h-9.2V53.6z"/>
	<path d="M155.6,53.6l8.7,12.7l8.7-12.7h11.4l-14,20.1l15.1,21.9h-11.5l-9.8-13.9l-9.7,13.9h-11.2l15-21.5l-14-20.5H155.6z"/>
	<path d="M198.1,93.5c-3.5-1.9-6.2-4.5-8.2-7.8c-2-3.3-3-7-3-11.1c0-4.1,1-7.8,3-11.1c2-3.3,4.7-5.9,8.2-7.8
		c3.5-1.9,7.4-2.8,11.8-2.8c4.4,0,8.3,0.9,11.8,2.8c3.5,1.9,6.2,4.5,8.2,7.8c2,3.3,3,7,3,11.1c0,4.1-1,7.8-3,11.1
		c-2,3.3-4.7,5.9-8.2,7.8c-3.5,1.9-7.4,2.8-11.8,2.8C205.5,96.3,201.6,95.4,198.1,93.5z M216.6,86.3c2-1.1,3.6-2.7,4.7-4.8
		s1.7-4.4,1.7-7c0-2.6-0.6-4.9-1.7-7s-2.7-3.6-4.7-4.8c-2-1.1-4.2-1.7-6.7-1.7c-2.5,0-4.7,0.6-6.7,1.7c-2,1.1-3.6,2.7-4.7,4.8
		s-1.7,4.4-1.7,7c0,2.6,0.6,4.9,1.7,7s2.7,3.6,4.7,4.8c2,1.1,4.2,1.7,6.7,1.7C212.4,88,214.6,87.5,216.6,86.3z"/>
	<path d="M282.5,87.7v16.6h-9v-8.7h-29.6v8.7h-9l0.1-16.6h1.7c2.5-0.1,4.3-1.9,5.3-5.5c1-3.6,1.7-8.7,1.9-15.4l0.5-13.1h32.3v34.1
		H282.5z M251.2,80.2c-0.6,3.4-1.6,5.9-2.9,7.5H267V61.5h-14.4l-0.2,6.1C252.2,72.6,251.8,76.8,251.2,80.2z"/>
	<path d="M321.2,70.8c2.7,2.3,4.1,5.7,4.1,10.1c0,4.8-1.5,8.4-4.5,10.9c-3,2.5-7.3,3.8-12.8,3.8h-19v-42h9.7v13.8h10.7
		C314.5,67.4,318.4,68.5,321.2,70.8z M313.4,86.5c1.4-1.2,2.1-3,2.1-5.4c0-4.4-2.7-6.5-8-6.5h-8.8v13.8h8.8
		C310,88.4,311.9,87.8,313.4,86.5z"/>
	<path d="M348.6,78.7h-6.7v16.9h-9.7v-42h9.7v17h7l11-17h10.3l-13.7,20.3l14.2,21.7h-11L348.6,78.7z"/>
	<path d="M383.1,93.5c-3.5-1.9-6.2-4.5-8.2-7.8c-2-3.3-3-7-3-11.1c0-4.1,1-7.8,3-11.1c2-3.3,4.7-5.9,8.2-7.8
		c3.5-1.9,7.4-2.8,11.8-2.8c4.4,0,8.3,0.9,11.8,2.8c3.5,1.9,6.2,4.5,8.2,7.8c2,3.3,3,7,3,11.1c0,4.1-1,7.8-3,11.1
		c-2,3.3-4.7,5.9-8.2,7.8c-3.5,1.9-7.4,2.8-11.8,2.8C390.6,96.3,386.6,95.4,383.1,93.5z M401.7,86.3c2-1.1,3.6-2.7,4.7-4.8
		s1.7-4.4,1.7-7c0-2.6-0.6-4.9-1.7-7s-2.7-3.6-4.7-4.8c-2-1.1-4.2-1.7-6.7-1.7c-2.5,0-4.7,0.6-6.7,1.7s-3.6,2.7-4.7,4.8
		c-1.1,2-1.7,4.4-1.7,7c0,2.6,0.6,4.9,1.7,7c1.1,2,2.7,3.6,4.7,4.8c2,1.1,4.2,1.7,6.7,1.7C397.4,88,399.7,87.5,401.7,86.3z"/>
</g>
</svg>
